<svg width="32" height="32" viewBox="0 0 32 32" fill="none" xmlns="http://www.w3.org/2000/svg">
<circle cx="16" cy="16" r="16" fill="white"/>
<path fill-rule="evenodd" clip-rule="evenodd" d="M19.9594 5.71597C19.9594 6.69118 19.5287 7.66639 18.9208 8.37004C18.2747 9.1478 17.1601 9.72797 16.2734 9.72809C16.1721 9.72809 16.0707 9.71566 16.0074 9.70335C15.9948 9.65399 15.9694 9.50577 15.9694 9.35768C15.9694 8.37004 16.4888 7.39483 17.0461 6.7776C17.7554 5.97522 18.9334 5.3703 19.9214 5.33325C19.9468 5.44441 19.9594 5.58019 19.9594 5.71597ZM23.444 11.859C23.4686 11.8433 23.4855 11.8325 23.4934 11.8265C22.1761 9.98723 20.1747 9.93774 19.6173 9.93762C18.7656 9.93762 18.0033 10.2321 17.3624 10.4797C16.8977 10.6592 16.4968 10.8141 16.172 10.8141C15.8137 10.8141 15.4034 10.6525 14.9456 10.4722C14.3676 10.2445 13.7137 9.98699 12.9928 9.98699C10.5609 9.98699 8.0909 11.9498 8.0909 15.6532C8.0909 17.9616 9.00286 20.3935 10.1302 21.9613C11.1054 23.2945 11.9541 24.3809 13.1701 24.3809C13.7468 24.3809 14.1696 24.206 14.6142 24.022C15.1072 23.8181 15.6269 23.6031 16.4128 23.6031C17.2063 23.6031 17.6806 23.805 18.1382 23.9996C18.5644 24.181 18.976 24.3561 19.6174 24.3561C20.9473 24.3561 21.8214 23.1835 22.6573 22.0107C23.5947 20.6775 23.9874 19.3689 24 19.3072C23.924 19.2826 21.378 18.2827 21.378 15.4558C21.378 13.1805 23.1123 12.0711 23.444 11.859Z" fill="black"/>
</svg>
