<svg width="32" height="32" viewBox="0 0 32 32" fill="none" xmlns="http://www.w3.org/2000/svg">
<circle cx="16" cy="16" r="16" fill="white"/>
<path d="M26 16.2401C26 15.5378 25.9384 14.8712 25.8328 14.2223H15.891V18.2312H21.5833C21.3282 19.5467 20.5804 20.6578 19.4718 21.4134V24.0801H22.8679C24.8562 22.2223 26 19.4845 26 16.2401Z" fill="#4285F4"/>
<path d="M15.891 26.6668C18.7415 26.6668 21.1258 25.7068 22.8678 24.0801L19.4718 21.4134C18.5216 22.0534 17.3162 22.4445 15.891 22.4445C13.1372 22.4445 10.8057 20.569 9.96985 18.0356H6.46822V20.7823C8.20144 24.2668 11.7647 26.6668 15.891 26.6668Z" fill="#34A853"/>
<path d="M9.96987 18.0356C9.74992 17.3956 9.63555 16.7111 9.63555 16C9.63555 15.2889 9.75872 14.6044 9.96987 13.9644V11.2178H6.46824C5.7468 12.6578 5.33329 14.2756 5.33329 16C5.33329 17.7244 5.7468 19.3422 6.46824 20.7822L9.96987 18.0356Z" fill="#FBBC05"/>
<path d="M15.891 9.5556C17.4482 9.5556 18.8383 10.0978 19.9381 11.1556L22.947 8.1156C21.1258 6.39115 18.7415 5.33337 15.891 5.33337C11.7647 5.33337 8.20144 7.73337 6.46822 11.2178L9.96985 13.9645C10.8057 11.4312 13.1372 9.5556 15.891 9.5556Z" fill="#EA4335"/>
</svg>
