<svg width="32" height="32" viewBox="0 0 32 32" fill="none" xmlns="http://www.w3.org/2000/svg">
<circle cx="16" cy="16" r="16" fill="white"/>
<path fill-rule="evenodd" clip-rule="evenodd" d="M24.3115 9.10985C25.2289 9.35161 25.9546 10.0635 26.2011 10.9633C26.653 12.6019 26.6667 16 26.6667 16C26.6667 16 26.6667 19.4114 26.2148 21.0366C25.9683 21.9365 25.2426 22.6483 24.3252 22.8901C22.6684 23.3333 16 23.3333 16 23.3333C16 23.3333 9.33162 23.3333 7.6748 22.8901C6.75738 22.6483 6.03166 21.9365 5.78519 21.0366C5.33333 19.398 5.33333 16 5.33333 16C5.33333 16 5.33333 12.6019 5.7715 10.9768C6.01797 10.0769 6.74369 9.36504 7.6611 9.12328C9.31793 8.68006 15.9863 8.66663 15.9863 8.66663C15.9863 8.66663 22.6547 8.66663 24.3115 9.10985ZM19.3958 16L13.8639 19.1428V12.8571L19.3958 16Z" fill="#FF0000"/>
</svg>
